<svg viewBox="0 0 140 160" xmlns="http://www.w3.org/2000/svg">
  <defs>
    <linearGradient id="silverGrad" x1="0%" y1="0%" x2="100%" y2="100%">
      <stop offset="0%" stop-color="#e8e8e8"/>
      <stop offset="40%" stop-color="#d0d0d0"/>
      <stop offset="100%" stop-color="#b0b0b0"/>
    </linearGradient>
    <radialGradient id="eyeGrad" cx="40%" cy="40%">
      <stop offset="0%" stop-color="#a8e063"/>
      <stop offset="100%" stop-color="#56ab2f"/>
    </radialGradient>
  </defs>
  <path d="M108,120 Q135,105 128,85" stroke="#c8c8c8" fill="none" stroke-width="8" stroke-linecap="round"/>
  <ellipse cx="70" cy="118" rx="38" ry="30" fill="url(#silverGrad)"/>
  <circle cx="70" cy="62" r="33" fill="url(#silverGrad)"/>
  <polygon points="42,42 38,12 58,34" fill="#c8c8c8"/>
  <polygon points="45,38 40,18 56,34" fill="#f0b0b0"/>
  <polygon points="98,42 102,12 82,34" fill="#c8c8c8"/>
  <polygon points="95,38 100,18 84,34" fill="#f0b0b0"/>
  <ellipse cx="55" cy="58" rx="9" ry="10" fill="white"/>
  <ellipse cx="85" cy="58" rx="9" ry="10" fill="white"/>
  <ellipse cx="56" cy="58" rx="6" ry="7" fill="url(#eyeGrad)"/>
  <ellipse cx="84" cy="58" rx="6" ry="7" fill="url(#eyeGrad)"/>
  <circle cx="56" cy="58" r="3.5" fill="#222"/>
  <circle cx="84" cy="58" r="3.5" fill="#222"/>
  <ellipse cx="70" cy="70" rx="3.5" ry="2.5" fill="#f0a0a0"/>
  <path d="M66,74 Q70,79 74,74" stroke="#aaa" fill="none" stroke-width="1.2"/>
  <line x1="35" y1="64" x2="55" y2="66" stroke="#ccc" stroke-width="1"/>
  <line x1="34" y1="70" x2="54" y2="70" stroke="#ccc" stroke-width="1"/>
  <line x1="105" y1="64" x2="85" y2="66" stroke="#ccc" stroke-width="1"/>
  <line x1="106" y1="70" x2="86" y2="70" stroke="#ccc" stroke-width="1"/>
  <ellipse cx="55" cy="142" rx="12" ry="6" fill="#d8d8d8"/>
  <ellipse cx="85" cy="142" rx="12" ry="6" fill="#d8d8d8"/>
</svg>
